<?xml version="1.0" standalone="no"?>
<!DOCTYPE svg PUBLIC "-//W3C//DTD SVG 20010904//EN"
 "http://www.w3.org/TR/2001/REC-SVG-20010904/DTD/svg10.dtd">
<svg version="1.0" xmlns="http://www.w3.org/2000/svg"
 width="790.000000pt" height="284.000000pt" viewBox="0 0 790.000000 284.000000"
 preserveAspectRatio="xMidYMid meet">

<g transform="translate(0.000000,284.000000) scale(0.100000,-0.100000)"
fill="#000000" stroke="none">
<path d="M1310 2084 c-68 -18 -148 -70 -191 -124 l-33 -40 -28 27 c-23 22 -31
25 -50 16 -48 -22 -124 -87 -149 -127 -64 -100 -73 -126 -73 -223 l-1 -92 -39
-3 c-39 -3 -40 -5 -53 -53 -18 -65 -10 -176 18 -250 15 -39 39 -75 80 -117 32
-33 59 -63 59 -66 0 -3 -10 -16 -22 -29 l-22 -24 22 -43 c41 -77 111 -140 198
-176 46 -20 77 -25 144 -26 l85 -1 3 -36 c3 -31 8 -37 40 -49 21 -7 75 -13
122 -12 116 2 180 27 261 105 35 32 64 59 66 59 2 0 13 -9 25 -20 12 -11 27
-20 33 -20 24 0 103 60 146 111 68 81 89 139 89 248 l0 91 38 0 c36 0 40 3 50
38 30 104 23 195 -23 287 -25 50 -106 145 -125 145 -17 0 -11 12 17 42 l27 29
-23 42 c-30 55 -47 75 -101 118 -74 59 -142 83 -240 85 l-85 2 -3 36 c-3 33
-6 36 -54 51 -64 19 -136 18 -208 -1z m178 -94 c2 -20 -7 -33 -43 -60 -55 -41
-103 -98 -136 -160 -21 -40 -24 -58 -24 -160 0 -92 4 -122 18 -148 10 -19 17
-36 14 -38 -10 -10 -76 28 -119 69 -91 89 -115 236 -59 352 58 119 153 175
286 172 56 -2 60 -4 63 -27z m303 -100 c53 -27 129 -98 129 -121 0 -30 -26
-42 -61 -30 -92 32 -248 0 -333 -69 -54 -43 -115 -125 -123 -162 -3 -15 -9
-28 -13 -28 -16 0 -34 75 -34 140 0 129 81 237 213 287 52 19 167 10 222 -17z
m-752 -33 c7 -9 8 -24 1 -48 -16 -57 -12 -161 10 -224 33 -96 107 -179 200
-223 l55 -26 -35 -14 c-19 -9 -66 -16 -105 -16 -58 -1 -80 4 -127 28 -111 55
-172 154 -172 276 -1 91 32 168 94 224 43 39 61 44 79 23z m858 -219 c97 -48
146 -116 166 -232 11 -68 5 -111 -18 -120 -21 -8 -43 3 -50 24 -12 38 -104
119 -176 155 -72 37 -74 37 -168 33 -66 -3 -108 -10 -133 -23 -21 -10 -40 -16
-43 -13 -3 3 1 20 9 39 43 103 149 167 280 168 58 1 79 -4 133 -31z m-1037
-253 c19 -30 44 -59 55 -65 11 -6 38 -23 60 -39 22 -17 59 -35 82 -42 60 -16
219 -8 261 15 19 10 36 15 39 13 9 -9 -38 -89 -73 -124 -76 -76 -216 -105
-327 -67 -104 35 -185 147 -194 268 -7 81 -1 96 34 96 23 -1 35 -11 63 -55z
m936 4 c77 -40 95 -58 135 -132 29 -55 33 -71 33 -137 0 -97 -28 -162 -96
-226 l-50 -47 -20 21 c-18 18 -19 24 -9 53 17 50 13 150 -10 224 -17 57 -30
77 -82 129 -71 70 -103 96 -118 96 -6 0 -20 5 -32 12 -22 11 -22 12 8 24 17 7
64 13 106 14 67 0 85 -4 135 -31z m-176 -146 c44 -40 64 -69 80 -109 58 -156
-13 -332 -158 -396 -55 -24 -160 -35 -188 -20 -29 15 -28 51 2 62 13 5 52 38
87 74 49 50 68 79 85 128 29 82 30 187 2 265 -11 32 -20 58 -20 59 0 1 12 -1
26 -4 14 -2 52 -29 84 -59z m-149 -81 c49 -295 -323 -471 -530 -250 -34 36
-39 59 -16 78 11 9 22 9 51 0 58 -20 188 -8 254 22 67 31 149 113 186 187 31
63 39 57 55 -37z"/>
<path d="M3550 1631 c10 -20 15 -221 5 -221 -3 0 -19 10 -35 22 -40 29 -119
30 -158 1 -70 -51 -94 -170 -52 -260 34 -77 128 -111 202 -75 35 18 43 19 55
6 8 -8 34 -14 61 -14 l47 0 -3 267 c-3 304 0 293 -84 293 -45 0 -48 -1 -38
-19z m-24 -237 c23 -30 28 -46 28 -102 2 -122 -39 -204 -92 -187 -33 10 -47
62 -47 170 0 80 4 107 18 128 25 39 59 36 93 -9z"/>
<path d="M3748 1393 c1 -142 5 -268 7 -280 5 -20 12 -23 58 -23 l52 0 -3 111
c-4 120 9 195 36 216 22 16 68 17 79 1 4 -7 10 -80 13 -161 6 -166 6 -167 80
-167 l45 0 -5 138 c-6 158 -15 182 -83 213 -54 24 -84 24 -125 -1 -18 -11 -35
-20 -37 -20 -3 0 -5 46 -5 103 0 67 -4 107 -12 115 -7 7 -32 12 -57 12 l-46 0
3 -257z"/>
<path d="M4202 1634 c-31 -22 -29 -67 4 -93 33 -26 45 -26 72 -1 60 56 -9 141
-76 94z"/>
<path d="M4378 1383 c2 -169 7 -272 14 -280 6 -7 31 -13 57 -13 l46 0 -3 73
c-3 58 -1 76 12 86 23 19 38 3 74 -74 38 -79 67 -101 116 -85 38 12 69 40 45
40 -8 0 -30 22 -49 47 -46 61 -80 92 -107 99 -31 8 -29 17 10 49 17 15 56 50
85 76 l54 49 -64 0 -64 0 -18 -37 c-27 -58 -79 -143 -88 -143 -4 0 -8 80 -8
178 0 125 -4 182 -12 190 -7 7 -32 12 -57 12 l-46 0 3 -267z"/>
<path d="M5742 1634 c-22 -15 -30 -57 -14 -80 8 -13 46 -34 61 -34 21 0 51 41
51 69 0 31 -30 61 -60 61 -9 0 -26 -7 -38 -16z"/>
<path d="M6160 1624 c10 -26 14 -214 5 -214 -3 0 -20 10 -36 23 -68 50 -179
14 -214 -70 -21 -50 -19 -139 5 -190 35 -78 137 -114 206 -74 33 20 38 20 54
6 9 -9 35 -15 61 -15 l44 0 -5 270 c-6 304 -2 290 -82 290 -47 0 -47 0 -38
-26z m-20 -236 c28 -46 34 -101 19 -176 -13 -70 -45 -116 -76 -110 -35 7 -56
54 -61 137 -6 101 3 147 34 178 20 20 27 22 44 13 12 -6 30 -25 40 -42z"/>
<path d="M2500 1595 c0 -8 -38 -122 -85 -252 -47 -130 -85 -241 -85 -246 0 -4
16 -7 36 -5 32 3 38 7 49 42 8 22 17 57 20 78 l7 39 91 -3 92 -3 20 -55 c36
-98 38 -100 105 -100 33 0 60 2 60 4 0 2 -12 35 -26 72 -29 76 -65 177 -95
269 -11 33 -29 86 -41 118 l-21 57 -63 0 c-51 0 -64 -3 -64 -15z m62 -165 c20
-52 38 -107 42 -122 l6 -28 -75 0 c-57 0 -75 3 -75 14 0 13 45 195 56 225 6
19 7 18 46 -89z"/>
<path d="M5218 1363 c2 -157 7 -252 14 -260 11 -14 123 -19 114 -5 -3 5 -6
118 -7 252 l-1 244 48 -3 c26 -1 57 -9 70 -18 42 -27 57 -113 30 -178 -12 -29
-23 -37 -60 -47 -25 -7 -46 -16 -46 -21 0 -5 13 -24 29 -42 15 -18 37 -56 47
-85 26 -73 71 -120 114 -120 19 0 47 5 64 11 l31 11 -45 51 c-25 28 -71 77
-103 109 -55 55 -57 58 -32 58 77 0 139 64 140 144 1 113 -64 146 -279 146
l-131 0 3 -247z"/>
<path d="M3040 1453 c-8 -3 -25 -14 -37 -25 -21 -20 -21 -20 -32 1 -9 17 -21
21 -59 21 l-47 0 3 -157 c3 -211 0 -203 65 -203 l52 0 0 139 c0 126 2 142 21
168 14 18 32 29 52 31 44 4 52 -21 52 -174 0 -69 5 -134 10 -145 9 -15 22 -19
62 -19 l51 0 -5 138 c-5 145 -11 169 -56 200 -29 21 -106 36 -132 25z"/>
<path d="M4891 1453 c-33 -7 -69 -31 -82 -55 -13 -24 9 -52 51 -67 26 -9 28
-7 34 22 3 18 15 47 26 65 38 62 90 24 90 -65 0 -48 -13 -58 -107 -86 -85 -25
-132 -60 -133 -98 0 -29 40 -68 81 -79 51 -14 91 -5 129 27 23 19 30 21 30 9
0 -21 31 -36 77 -36 l38 0 -3 147 c-4 160 -7 169 -64 199 -30 15 -128 26 -167
17z m119 -208 c0 -86 -38 -137 -90 -120 -23 7 -37 64 -22 90 9 16 89 73 105
74 4 1 7 -19 7 -44z"/>
<path d="M6465 1445 c-51 -20 -101 -69 -116 -113 -17 -53 -6 -125 25 -167 67
-87 210 -110 287 -46 29 25 32 30 20 45 -13 15 -16 13 -37 -17 -47 -69 -124
-72 -156 -5 -9 20 -20 59 -24 87 l-7 51 127 0 126 0 0 25 c0 48 -29 101 -68
123 -51 28 -127 35 -177 17z m100 -15 c11 -13 20 -41 23 -75 l4 -55 -66 0
c-74 0 -75 2 -55 75 20 72 58 95 94 55z"/>
<path d="M4188 1283 c2 -94 8 -174 14 -180 6 -7 31 -13 57 -13 l46 0 -3 167
c-2 100 -7 172 -14 180 -6 7 -31 13 -57 13 l-46 0 3 -167z"/>
<path d="M5722 1280 c3 -191 3 -190 76 -190 l42 0 0 164 c0 189 -3 196 -76
196 l-45 0 3 -170z"/>
</g>
</svg>
